<svg xmlns="http://www.w3.org/2000/svg" viewBox="0 0 540 160" width="540" height="160" role="img" aria-label="FreeTimeline">
  <defs>
    <linearGradient id="dStroke" x1="0" y1="0.2" x2="1" y2="0.8">
      <stop offset="0%" stop-color="#5a80ff"/><stop offset="55%" stop-color="#40c8ff"/><stop offset="100%" stop-color="#60e8d0"/>
    </linearGradient>
    <radialGradient id="dNode" cx="50%" cy="50%" r="50%"><stop offset="0%" stop-color="#fff"/><stop offset="100%" stop-color="#bfe6ff"/></radialGradient>
    <linearGradient id="dWord" x1="0" y1="0" x2="1" y2="0">
      <stop offset="0%" stop-color="#dfe7ff"/><stop offset="50%" stop-color="#86b8ff"/><stop offset="100%" stop-color="#62e6d2"/>
    </linearGradient>
    <radialGradient id="dGlow" cx="22%" cy="45%" r="60%">
      <stop offset="0%" stop-color="rgba(64,160,255,0.20)"/><stop offset="100%" stop-color="rgba(64,160,255,0)"/>
    </radialGradient>
  </defs>
  <rect width="540" height="160" rx="22" fill="#070A18"/>
  <rect width="540" height="160" rx="22" fill="url(#dGlow)"/>
  <rect x="1" y="1" width="538" height="158" rx="21" fill="none" stroke="rgba(120,160,255,0.12)" stroke-width="1.5"/>
  <g transform="translate(26,44) scale(0.56)">
    <path d="M64 64 C 54 42, 26 42, 26 64 C 26 86, 54 86, 64 64 C 74 42, 102 42, 102 64 C 102 86, 74 86, 64 64 Z"
          fill="none" stroke="url(#dStroke)" stroke-width="6.5" stroke-linecap="round" stroke-linejoin="round"/>
    <circle cx="26" cy="64" r="5.2" fill="url(#dNode)"/><circle cx="102" cy="64" r="5.2" fill="url(#dNode)"/>
    <circle cx="64" cy="64" r="4" fill="#0b1530" stroke="#7fd8ff" stroke-width="2.2"/>
    <circle cx="45" cy="49.5" r="2.6" fill="#bfe6ff"/><circle cx="83" cy="78.5" r="2.6" fill="#9af0dd"/>
  </g>
  <text x="112" y="86" font-family="-apple-system,'Segoe UI',system-ui,Arial,sans-serif"
        font-size="52" font-weight="800" letter-spacing="-1.4" fill="url(#dWord)">FreeTimeline</text>
  <text x="114" y="116" font-family="-apple-system,'Segoe UI',system-ui,Arial,sans-serif"
        font-size="12.5" font-weight="700" letter-spacing="5" fill="#d4af37">A REAL FREE TIMELINE</text>
</svg>
